<?xml version="1.0" encoding="UTF-8"?>
<svg version="1.1" xmlns="http://www.w3.org/2000/svg" width="284" height="285">
<path d="M0 0 C2.359375 1.26953125 2.359375 1.26953125 4.75 2.8125 C9.30594564 5.74671002 14.04012165 7.8589011 19 10 C20.70094834 10.75294121 22.40145533 11.50688013 24.1015625 12.26171875 C49.42205685 23.41465719 75.28075167 33.86968157 102.0078125 41.16796875 C105.28249401 42.07855251 108.51615208 43.07875508 111.75 44.125 C112.71421875 44.43695313 113.6784375 44.74890625 114.671875 45.0703125 C117 46 117 46 119 48 C119.20116934 50.73476436 119.27932254 53.36581049 119.265625 56.1015625 C119.26844482 56.92181412 119.27126465 57.74206573 119.27416992 58.58717346 C119.27845828 61.26662181 119.26581767 63.94559914 119.25 66.625 C119.24689819 67.53537018 119.24379639 68.44574036 119.24060059 69.38369751 C119.00689522 127.57569055 105.35099602 183.1045406 65.04296875 226.765625 C63.14864694 228.83742629 61.34989006 230.96108951 59.5625 233.125 C58.716875 234.07375 57.87125 235.0225 57 236 C56.34 236 55.68 236 55 236 C55 236.66 55 237.32 55 238 C52.04157543 240.74710853 48.82411882 243.18167596 45.65478516 245.68066406 C44.03591875 246.97136251 42.44414342 248.28959047 40.85546875 249.6171875 C31.97449555 256.94178419 22.42661108 262.84223654 12.44726562 268.55712891 C10.74460392 269.5609927 9.06734486 270.60868946 7.41210938 271.68896484 C2.47749938 274.87147125 -0.93482931 277.06821564 -7 276 C-9.47955193 274.99609789 -11.58085925 274.00415907 -13.875 272.6875 C-14.51211914 272.33429688 -15.14923828 271.98109375 -15.80566406 271.6171875 C-27.46335159 265.03960714 -39.83958766 257.7559493 -50 249 C-50 248.34 -50 247.68 -50 247 C-50.85851562 246.60361328 -50.85851562 246.60361328 -51.734375 246.19921875 C-55.87256135 244.0088339 -59.36822285 240.93196627 -63 238 C-63.65226562 237.49726563 -64.30453125 236.99453125 -64.9765625 236.4765625 C-71.76720798 230.971389 -76.8250385 223.97189451 -82 217 C-82.49580566 216.33645508 -82.99161133 215.67291016 -83.50244141 214.98925781 C-103.67227997 187.81483096 -115.32625447 158.04557786 -122 125 C-122.33644531 123.3603125 -122.33644531 123.3603125 -122.6796875 121.6875 C-125.71986555 105.22376654 -126.33423744 88.4257765 -126.26074219 71.72680664 C-126.2497623 68.74801411 -126.2608535 65.76979302 -126.2734375 62.79101562 C-126.27211989 60.88801951 -126.26956582 58.98502374 -126.265625 57.08203125 C-126.26967346 56.19578568 -126.27372192 55.3095401 -126.27789307 54.3964386 C-126.23007552 48.23007552 -126.23007552 48.23007552 -124 46 C-122.40151403 45.40416938 -120.77429357 44.88428788 -119.13671875 44.40625 C-117.61183838 43.95245972 -117.61183838 43.95245972 -116.05615234 43.48950195 C-114.94449707 43.16296631 -113.8328418 42.83643066 -112.6875 42.5 C-92.16343469 36.30402888 -71.9876975 29.37459091 -52.125 21.3125 C-51.14657135 20.91643051 -51.14657135 20.91643051 -50.14837646 20.51235962 C-36.63338565 15.02118532 -23.38797914 9.08747873 -10.75 1.76953125 C-4.37221951 -1.75629834 -4.37221951 -1.75629834 0 0 Z " fill="#113D64" transform="translate(146,4)"/>
<path d="M0 0 C2.359375 1.26953125 2.359375 1.26953125 4.75 2.8125 C9.30594564 5.74671002 14.04012165 7.8589011 19 10 C20.70094834 10.75294121 22.40145533 11.50688013 24.1015625 12.26171875 C49.42205685 23.41465719 75.28075167 33.86968157 102.0078125 41.16796875 C105.28249401 42.07855251 108.51615208 43.07875508 111.75 44.125 C112.71421875 44.43695313 113.6784375 44.74890625 114.671875 45.0703125 C117 46 117 46 119 48 C119.20116934 50.73476436 119.27932254 53.36581049 119.265625 56.1015625 C119.26844482 56.92181412 119.27126465 57.74206573 119.27416992 58.58717346 C119.27845828 61.26662181 119.26581767 63.94559914 119.25 66.625 C119.24689819 67.53537018 119.24379639 68.44574036 119.24060059 69.38369751 C119.00689522 127.57569055 105.35099602 183.1045406 65.04296875 226.765625 C63.14864694 228.83742629 61.34989006 230.96108951 59.5625 233.125 C58.716875 234.07375 57.87125 235.0225 57 236 C56.34 236 55.68 236 55 236 C55 236.66 55 237.32 55 238 C52.04157543 240.74710853 48.82411882 243.18167596 45.65478516 245.68066406 C44.03591875 246.97136251 42.44414342 248.28959047 40.85546875 249.6171875 C31.97449555 256.94178419 22.42661108 262.84223654 12.44726562 268.55712891 C10.74460392 269.5609927 9.06734486 270.60868946 7.41210938 271.68896484 C2.47749938 274.87147125 -0.93482931 277.06821564 -7 276 C-9.47955193 274.99609789 -11.58085925 274.00415907 -13.875 272.6875 C-14.51211914 272.33429688 -15.14923828 271.98109375 -15.80566406 271.6171875 C-27.46335159 265.03960714 -39.83958766 257.7559493 -50 249 C-50 248.34 -50 247.68 -50 247 C-50.85851562 246.60361328 -50.85851562 246.60361328 -51.734375 246.19921875 C-55.87256135 244.0088339 -59.36822285 240.93196627 -63 238 C-63.65226562 237.49726563 -64.30453125 236.99453125 -64.9765625 236.4765625 C-71.76720798 230.971389 -76.8250385 223.97189451 -82 217 C-82.49580566 216.33645508 -82.99161133 215.67291016 -83.50244141 214.98925781 C-103.67227997 187.81483096 -115.32625447 158.04557786 -122 125 C-122.33644531 123.3603125 -122.33644531 123.3603125 -122.6796875 121.6875 C-125.71986555 105.22376654 -126.33423744 88.4257765 -126.26074219 71.72680664 C-126.2497623 68.74801411 -126.2608535 65.76979302 -126.2734375 62.79101562 C-126.27211989 60.88801951 -126.26956582 58.98502374 -126.265625 57.08203125 C-126.26967346 56.19578568 -126.27372192 55.3095401 -126.27789307 54.3964386 C-126.23007552 48.23007552 -126.23007552 48.23007552 -124 46 C-122.40151403 45.40416938 -120.77429357 44.88428788 -119.13671875 44.40625 C-117.61183838 43.95245972 -117.61183838 43.95245972 -116.05615234 43.48950195 C-114.94449707 43.16296631 -113.8328418 42.83643066 -112.6875 42.5 C-92.16343469 36.30402888 -71.9876975 29.37459091 -52.125 21.3125 C-51.14657135 20.91643051 -51.14657135 20.91643051 -50.14837646 20.51235962 C-36.63338565 15.02118532 -23.38797914 9.08747873 -10.75 1.76953125 C-4.37221951 -1.75629834 -4.37221951 -1.75629834 0 0 Z M-8.796875 21.73046875 C-9.57401855 22.11452881 -10.35116211 22.49858887 -11.15185547 22.89428711 C-12.00924316 23.32104736 -12.86663086 23.74780762 -13.75 24.1875 C-43.7893515 38.76301002 -75.08149166 50.27477658 -107 60 C-107.02464849 65.39346988 -107.04283531 70.78690725 -107.05493164 76.18041992 C-107.05997231 78.01668875 -107.06680477 79.85295354 -107.07543945 81.68920898 C-107.08751672 84.32276401 -107.09323081 86.95626616 -107.09765625 89.58984375 C-107.10281754 90.41588608 -107.10797882 91.24192841 -107.11329651 92.09300232 C-107.11349205 94.06236368 -107.06204152 96.03161614 -107 98 C-106.67 98.33 -106.34 98.66 -106 99 C-105.69107486 101.4377558 -105.42953949 103.86792834 -105.1875 106.3125 C-100.81651166 146.14509964 -85.53939605 186.19347293 -57.4765625 215.40234375 C-55.41816695 217.5613864 -53.51464317 219.75862471 -51.625 222.0625 C-42.73938773 232.23252542 -31.36899176 239.89218818 -20 247 C-19.36288086 247.40476563 -18.72576172 247.80953125 -18.06933594 248.2265625 C-16.20452144 249.40214459 -14.32538078 250.54940866 -12.4375 251.6875 C-11.34308594 252.35136719 -10.24867188 253.01523437 -9.12109375 253.69921875 C-5.34543622 255.27280318 -3.87972502 255.22955932 0 254 C2.75263315 252.70722508 5.33899176 251.20199484 7.9375 249.625 C8.67895264 249.18019287 9.42040527 248.73538574 10.18432617 248.27709961 C21.44705474 241.40718306 31.70519525 233.63220732 41.27734375 224.5625 C43.76597559 222.22025827 46.32607771 220.01521534 48.9375 217.8125 C52.3701473 214.79574306 54.7378345 211.76387997 56.9296875 207.76171875 C58 206 58 206 59.35546875 204.66015625 C80.05784799 183.76107982 91.10771707 149.21359005 96 121 C96.12627777 120.30590027 96.25255554 119.61180054 96.38265991 118.89666748 C98.77174835 105.59453097 99.37978524 92.74382836 99.1875 79.25 C99.17239208 77.36589638 99.15871471 75.48178074 99.14648438 73.59765625 C99.11403992 69.06479644 99.062613 64.53253927 99 60 C95.55064375 58.60190412 92.12836497 57.38177565 88.5625 56.3125 C82.25808729 54.3937657 75.96984669 52.42731964 69.6875 50.4375 C68.75687744 50.14464111 67.82625488 49.85178223 66.86743164 49.55004883 C61.51256048 47.85094845 56.23044691 46.04995152 51 44 C50.0829126 43.64091553 49.1658252 43.28183105 48.22094727 42.91186523 C9.32106552 27.54737701 9.32106552 27.54737701 -2 20 C-5.08634054 20 -6.12312004 20.3822837 -8.796875 21.73046875 Z " fill="#CBCCCD" transform="translate(146,4)"/>
<path d="M0 0 C2.5 0.125 2.5 0.125 3.5 1.125 C3.74349011 3.64106449 3.88363366 6.15586024 4.0234375 8.6796875 C4.59693448 11.6223851 5.12009801 12.33944755 7.5 14.125 C10.37834445 14.72439101 10.37834445 14.72439101 13.6796875 14.85546875 C14.91976562 14.93603516 16.15984375 15.01660156 17.4375 15.09960938 C18.736875 15.16986328 20.03625 15.24011719 21.375 15.3125 C23.26605469 15.4352832 23.26605469 15.4352832 25.1953125 15.56054688 C28.96294106 15.79117846 32.72843538 15.97249889 36.5 16.125 C37.73395508 16.1760791 38.96791016 16.2271582 40.23925781 16.27978516 C41.98094238 16.32111572 41.98094238 16.32111572 43.7578125 16.36328125 C45.31072998 16.40449097 45.31072998 16.40449097 46.89501953 16.4465332 C49.93562349 16.07123092 50.53670756 15.3541775 52.5 13.125 C55.64924548 12.73134432 57.61909116 12.59645469 60.375 14.25 C61.98515263 16.93358771 61.76647742 19.06050972 61.5 22.125 C61.17 22.455 60.84 22.785 60.5 23.125 C60.79492498 30.00341174 63.74562698 35.74967852 66.5625 41.9375 C67.49400392 44.00510829 68.42254896 46.07405302 69.34765625 48.14453125 C69.76023682 49.05307861 70.17281738 49.96162598 70.59790039 50.89770508 C71.5 53.125 71.5 53.125 71.5 55.125 C74.8 55.125 78.1 55.125 81.5 55.125 C82.91114517 76.48756693 82.19931309 97.74917133 81.5 119.125 C77.21 119.125 72.92 119.125 68.5 119.125 C68.17 105.925 67.84 92.725 67.5 79.125 C64.43058807 85.01569901 64.43058807 85.01569901 61.3684082 90.91015625 C60.10205857 93.32827486 58.80909029 95.7297555 57.5 98.125 C57.07227295 98.91455078 56.6445459 99.70410156 56.20385742 100.51757812 C55.78595947 101.24396484 55.36806152 101.97035156 54.9375 102.71875 C54.57140625 103.36521484 54.2053125 104.01167969 53.828125 104.67773438 C52.5 106.125 52.5 106.125 50.421875 106.61914062 C48.1875 106.625 48.1875 106.625 44.5 106.125 C44.1596875 105.37734375 43.819375 104.6296875 43.46875 103.859375 C42.9840625 102.87453125 42.499375 101.8896875 42 100.875 C41.30390625 99.41320312 41.30390625 99.41320312 40.59375 97.921875 C38.12745757 94.19203972 38.12745757 94.19203972 30.5 91.125 C30.17 100.365 29.84 109.605 29.5 119.125 C25.21 119.125 20.92 119.125 16.5 119.125 C16.5 98.335 16.5 77.545 16.5 56.125 C21.12 56.125 25.74 56.125 30.5 56.125 C31.82 57.775 33.14 59.425 34.5 61.125 C36.4897457 56.86306345 38.46461937 52.59465331 40.42651367 48.31982422 C41.094751 46.86909888 41.76688787 45.42016274 42.44311523 43.97314453 C43.41922381 41.88261533 44.38072915 39.78587056 45.33984375 37.6875 C45.64091537 37.05070312 45.941987 36.41390625 46.25218201 35.7578125 C48.31596739 31.19122052 49.07158265 27.12078201 49.5 22.125 C45.58969115 22.0998943 41.67941485 22.08195254 37.76904297 22.07006836 C35.8004389 22.06268907 33.83185714 22.04996942 31.86328125 22.03710938 C17.777081 21.50623561 17.777081 21.50623561 4.5 25.125 C4.17 46.245 3.84 67.365 3.5 89.125 C2.51 89.62 2.51 89.62 1.5 90.125 C-1.125 89.1875 -1.125 89.1875 -3.5 88.125 C-3.50546844 86.9920047 -3.50546844 86.9920047 -3.51104736 85.83612061 C-3.54892923 78.71446433 -3.60578301 71.59333106 -3.68390274 64.47201157 C-3.72339643 60.81091277 -3.75557521 57.15005515 -3.77099609 53.48876953 C-3.78615087 49.95473078 -3.82057361 46.42135499 -3.86830902 42.88761139 C-3.89034624 40.88471038 -3.89247476 38.88162244 -3.89434814 36.87860107 C-3.91406677 35.65763733 -3.9337854 34.43667358 -3.95410156 33.17871094 C-3.96298401 32.10393494 -3.97186646 31.02915894 -3.98101807 29.92181396 C-4.63196984 26.41380939 -5.65908961 25.23668002 -8.5 23.125 C-10.60279828 22.4674289 -10.60279828 22.4674289 -12.86962891 22.44311523 C-13.72376373 22.39303818 -14.57789856 22.34296112 -15.45791626 22.29136658 C-16.37156952 22.25580154 -17.28522278 22.22023651 -18.2265625 22.18359375 C-19.17058929 22.12978043 -20.11461609 22.0759671 -21.08724976 22.02052307 C-24.09919148 21.85011365 -27.11157301 21.70403975 -30.125 21.5625 C-33.14539466 21.41584861 -36.1649935 21.26367008 -39.18417358 21.09376526 C-41.06204167 20.98840881 -42.94073135 20.8966612 -44.81997681 20.81968689 C-46.09172256 20.74929955 -46.09172256 20.74929955 -47.38916016 20.67749023 C-48.13654449 20.64292221 -48.88392883 20.60835419 -49.65396118 20.57273865 C-51.5 20.125 -51.5 20.125 -53.5 17.125 C-56.06282742 16.39534634 -56.06282742 16.39534634 -58.5 16.125 C-58.17 18.435 -57.84 20.745 -57.5 23.125 C-55.85 23.125 -54.2 23.125 -52.5 23.125 C-52.5 23.785 -52.5 24.445 -52.5 25.125 C-53.16 25.125 -53.82 25.125 -54.5 25.125 C-54.5 29.745 -54.5 34.365 -54.5 39.125 C-53.035625 39.063125 -51.57125 39.00125 -50.0625 38.9375 C-40.96909825 38.97603136 -34.91248694 41.75375092 -28.5 48.125 C-30.26229689 51.90019562 -32.26875188 54.43229323 -35.5 57.125 C-38.52424124 57.22255617 -39.59805928 56.03984325 -41.875 54.0625 C-46.90698357 50.5401115 -53.69281621 51.44220761 -59.5 52.125 C-64.01765178 54.22804479 -66.72042801 57.00711557 -69.5 61.125 C-71.59588628 67.73189979 -71.22609323 74.96658195 -68.4765625 81.30078125 C-66.7843656 84.46180507 -65.12212259 86.6248366 -62.5 89.125 C-58.19314588 90.15717046 -54.03916484 90.2325425 -49.625 90.1875 C-48.47257812 90.17847656 -47.32015625 90.16945313 -46.1328125 90.16015625 C-44.82957031 90.14275391 -44.82957031 90.14275391 -43.5 90.125 C-43.5 89.465 -43.5 88.805 -43.5 88.125 C-41.025 87.135 -41.025 87.135 -38.5 86.125 C-38.5 85.465 -38.5 84.805 -38.5 84.125 C-35.5 84.125 -35.5 84.125 -32.875 86.375 C-30.62323358 88.98230848 -30.11527671 89.92556111 -29.5 93.125 C-37.56911701 100.48285746 -44.3685319 104.54675291 -55.4921875 104.3984375 C-65.53802611 103.48517944 -72.43424588 98.72059065 -79.03125 91.43359375 C-85.45575965 83.38428079 -85.07195973 73.3230592 -84.29296875 63.51953125 C-83.15134453 55.42779913 -78.80332548 50.52008452 -73.25 44.8125 C-67.81748139 41.47890904 -61.89269022 39.125 -55.5 39.125 C-55.5 34.505 -55.5 29.885 -55.5 25.125 C-56.49 25.125 -57.48 25.125 -58.5 25.125 C-58.5 24.465 -58.5 23.805 -58.5 23.125 C-59.49 22.795 -60.48 22.465 -61.5 22.125 C-60.625 14.25 -60.625 14.25 -59.5 13.125 C-56.125 12.875 -56.125 12.875 -52.5 13.125 C-52.066875 13.61871094 -51.63375 14.11242187 -51.1875 14.62109375 C-47.17173584 18.19995764 -38.70205852 16.36781312 -33.5 16.125 C-31.94877441 16.05321533 -31.94877441 16.05321533 -30.36621094 15.97998047 C-26.99175488 15.80696936 -23.62153557 15.59748342 -20.25 15.375 C-19.15478027 15.31352783 -18.05956055 15.25205566 -16.93115234 15.1887207 C-15.89684082 15.11097412 -14.8625293 15.03322754 -13.796875 14.953125 C-12.87229492 14.8902832 -11.94771484 14.82744141 -10.99511719 14.76269531 C-7.8256567 13.95265316 -6.54414576 12.63517469 -4.5 10.125 C-3.85030616 7.81651835 -3.85030616 7.81651835 -3.8125 5.4375 C-3.5110792 0.17555396 -3.5110792 0.17555396 0 0 Z " fill="#88835E" transform="translate(140.5,53.875)"/>
<path d="M0 0 C1.17175781 0.04640625 2.34351563 0.0928125 3.55078125 0.140625 C5.32001953 0.19476563 5.32001953 0.19476563 7.125 0.25 C8.48044922 0.31960937 8.48044922 0.31960937 9.86328125 0.390625 C11.27442642 21.75319193 10.56259434 43.01479633 9.86328125 64.390625 C5.57328125 64.390625 1.28328125 64.390625 -3.13671875 64.390625 C-3.46671875 51.190625 -3.79671875 37.990625 -4.13671875 24.390625 C-7.20613068 30.28132401 -7.20613068 30.28132401 -10.26831055 36.17578125 C-11.53466018 38.59389986 -12.82762846 40.9953805 -14.13671875 43.390625 C-14.77830933 44.57495117 -14.77830933 44.57495117 -15.43286133 45.78320312 C-15.85075928 46.50958984 -16.26865723 47.23597656 -16.69921875 47.984375 C-17.0653125 48.63083984 -17.43140625 49.27730469 -17.80859375 49.94335938 C-19.13671875 51.390625 -19.13671875 51.390625 -21.21484375 51.88476562 C-23.44921875 51.890625 -23.44921875 51.890625 -27.13671875 51.390625 C-27.47703125 50.64296875 -27.81734375 49.8953125 -28.16796875 49.125 C-28.65265625 48.14015625 -29.13734375 47.1553125 -29.63671875 46.140625 C-30.10078125 45.16609375 -30.56484375 44.1915625 -31.04296875 43.1875 C-33.50926118 39.45766472 -33.50926118 39.45766472 -41.13671875 36.390625 C-41.46671875 45.630625 -41.79671875 54.870625 -42.13671875 64.390625 C-46.42671875 64.390625 -50.71671875 64.390625 -55.13671875 64.390625 C-55.13671875 43.600625 -55.13671875 22.810625 -55.13671875 1.390625 C-50.51671875 1.390625 -45.89671875 1.390625 -41.13671875 1.390625 C-40.34007812 2.87433594 -39.5434375 4.35804687 -38.72265625 5.88671875 C-37.65257302 7.86731139 -36.58224759 9.84777318 -35.51171875 11.828125 C-34.98964844 12.80201172 -34.46757812 13.77589844 -33.9296875 14.77929688 C-30.62701652 20.87496738 -27.10015507 26.70152025 -23.13671875 32.390625 C-20.29966481 29.87776002 -18.70101024 27.07833476 -16.88671875 23.76953125 C-16.27828125 22.66931641 -15.66984375 21.56910156 -15.04296875 20.43554688 C-14.41390625 19.28634766 -13.78484375 18.13714844 -13.13671875 16.953125 C-11.88939291 14.68212294 -10.63949381 12.41253186 -9.38671875 10.14453125 C-8.835 9.13720947 -8.28328125 8.1298877 -7.71484375 7.09204102 C-3.85201959 0.47970356 -3.85201959 0.47970356 0 0 Z " fill="#F8F9F8" transform="translate(212.13671875,108.609375)"/>
<path d="M0 0 C2.51119365 1.83780094 4.79350257 3.80769226 7 6 C5.23770311 9.77519562 3.23124812 12.30729323 0 15 C-3.02424124 15.09755617 -4.09805928 13.91484325 -6.375 11.9375 C-11.40698357 8.4151115 -18.19281621 9.31720761 -24 10 C-28.51765178 12.10304479 -31.22042801 14.88211557 -34 19 C-36.09588628 25.60689979 -35.72609323 32.84158195 -32.9765625 39.17578125 C-31.2843656 42.33680507 -29.62212259 44.4998366 -27 47 C-22.69314588 48.03217046 -18.53916484 48.1075425 -14.125 48.0625 C-12.97257812 48.05347656 -11.82015625 48.04445312 -10.6328125 48.03515625 C-9.32957031 48.01775391 -9.32957031 48.01775391 -8 48 C-8 47.34 -8 46.68 -8 46 C-6.35 45.34 -4.7 44.68 -3 44 C-3 43.34 -3 42.68 -3 42 C0 42 0 42 2.625 44.25 C4.87676642 46.85730848 5.38472329 47.80056111 6 51 C-2.06911701 58.35785746 -8.8685319 62.42175291 -19.9921875 62.2734375 C-30.03802611 61.36017944 -36.93424588 56.59559065 -43.53125 49.30859375 C-49.95575965 41.25928079 -49.57195973 31.1980592 -48.79296875 21.39453125 C-47.65134453 13.30279913 -43.30332548 8.39508452 -37.75 2.6875 C-26.85947914 -3.99531962 -11.63577236 -6.39148059 0 0 Z " fill="#F1F3F3" transform="translate(105,96)"/>
<path d="M0 0 C3.52092935 1.46070988 6.40382449 3.19123443 9 6 C9.34882998 7.32936321 9.67997965 8.66340886 10 10 C10.58529955 11.43215536 11.20347696 12.85115775 11.84765625 14.2578125 C12.20537109 15.04800781 12.56308594 15.83820313 12.93164062 16.65234375 C13.68917754 18.30871981 14.44699269 19.96496866 15.20507812 21.62109375 C15.56150391 22.40871094 15.91792969 23.19632813 16.28515625 24.0078125 C16.61394775 24.72598145 16.94273926 25.44415039 17.28149414 26.18408203 C18 28 18 28 18 30 C19.32 30 20.64 30 22 30 C21.42365861 34.75481646 19.44931479 37.97048212 17 42 C14.03595495 39.19195732 11.55500981 36.81684226 10 33 C9.01 33 8.02 33 7 33 C7 33.66 7 34.32 7 35 C5.35 35.66 3.7 36.32 2 37 C2 37.66 2 38.32 2 39 C-4.53574761 40.84417258 -11.78739639 40.81325446 -18 38 C-23.44321737 32.53169868 -26.02268271 26.74845463 -26.3125 19.0625 C-26.16601729 13.63450184 -25.23767645 9.28947451 -21.3125 5.2734375 C-14.60573988 -0.62292243 -8.92338478 -1.02446585 0 0 Z " fill="#AD9A60" transform="translate(95,105)"/>
<path d="M0 0 C2.5 0.125 2.5 0.125 3.5 1.125 C3.74349011 3.64106449 3.88363366 6.15586024 4.0234375 8.6796875 C4.59693448 11.6223851 5.12009801 12.33944755 7.5 14.125 C10.37834445 14.72439101 10.37834445 14.72439101 13.6796875 14.85546875 C14.91976562 14.93603516 16.15984375 15.01660156 17.4375 15.09960938 C18.736875 15.16986328 20.03625 15.24011719 21.375 15.3125 C23.26605469 15.4352832 23.26605469 15.4352832 25.1953125 15.56054688 C28.96294106 15.79117846 32.72843538 15.97249889 36.5 16.125 C37.73395508 16.1760791 38.96791016 16.2271582 40.23925781 16.27978516 C41.98094238 16.32111572 41.98094238 16.32111572 43.7578125 16.36328125 C45.31072998 16.40449097 45.31072998 16.40449097 46.89501953 16.4465332 C49.93562349 16.07123092 50.53670756 15.3541775 52.5 13.125 C55.64924548 12.73134432 57.61909116 12.59645469 60.375 14.25 C61.9682099 16.90534983 61.70214032 19.09289518 61.5 22.125 C60.18 21.795 58.86 21.465 57.5 21.125 C57.5 19.805 57.5 18.485 57.5 17.125 C56.18 17.125 54.86 17.125 53.5 17.125 C52.51 18.61 52.51 18.61 51.5 20.125 C51.005 19.135 51.005 19.135 50.5 18.125 C50.005 19.61 50.005 19.61 49.5 21.125 C48.6843457 21.15005615 47.86869141 21.1751123 47.02832031 21.20092773 C43.94181001 21.29724468 40.85540568 21.39638672 37.76904297 21.49731445 C35.80052279 21.56086885 33.83190243 21.62129596 31.86328125 21.68164062 C17.76822153 21.50865322 17.76822153 21.50865322 4.5 25.125 C4.17 46.245 3.84 67.365 3.5 89.125 C2.51 89.62 2.51 89.62 1.5 90.125 C-1.125 89.1875 -1.125 89.1875 -3.5 88.125 C-3.50546844 86.9920047 -3.50546844 86.9920047 -3.51104736 85.83612061 C-3.54892923 78.71446433 -3.60578301 71.59333106 -3.68390274 64.47201157 C-3.72339643 60.81091277 -3.75557521 57.15005515 -3.77099609 53.48876953 C-3.78615087 49.95473078 -3.82057361 46.42135499 -3.86830902 42.88761139 C-3.89034624 40.88471038 -3.89247476 38.88162244 -3.89434814 36.87860107 C-3.91406677 35.65763733 -3.9337854 34.43667358 -3.95410156 33.17871094 C-3.96298401 32.10393494 -3.97186646 31.02915894 -3.98101807 29.92181396 C-4.63196984 26.41380939 -5.65908961 25.23668002 -8.5 23.125 C-10.60279828 22.4674289 -10.60279828 22.4674289 -12.86962891 22.44311523 C-13.72376373 22.39303818 -14.57789856 22.34296112 -15.45791626 22.29136658 C-16.37156952 22.25580154 -17.28522278 22.22023651 -18.2265625 22.18359375 C-19.17058929 22.12978043 -20.11461609 22.0759671 -21.08724976 22.02052307 C-24.09919148 21.85011365 -27.11157301 21.70403975 -30.125 21.5625 C-33.14539466 21.41584861 -36.1649935 21.26367008 -39.18417358 21.09376526 C-41.06204167 20.98840881 -42.94073135 20.8966612 -44.81997681 20.81968689 C-46.09172256 20.74929955 -46.09172256 20.74929955 -47.38916016 20.67749023 C-48.13654449 20.64292221 -48.88392883 20.60835419 -49.65396118 20.57273865 C-51.5 20.125 -51.5 20.125 -53.5 17.125 C-56.06282742 16.39534634 -56.06282742 16.39534634 -58.5 16.125 C-58.17 18.435 -57.84 20.745 -57.5 23.125 C-55.85 23.125 -54.2 23.125 -52.5 23.125 C-52.5 23.785 -52.5 24.445 -52.5 25.125 C-53.16 25.125 -53.82 25.125 -54.5 25.125 C-54.5 29.745 -54.5 34.365 -54.5 39.125 C-54.83 39.125 -55.16 39.125 -55.5 39.125 C-55.5 34.505 -55.5 29.885 -55.5 25.125 C-56.49 25.125 -57.48 25.125 -58.5 25.125 C-58.5 24.465 -58.5 23.805 -58.5 23.125 C-59.49 22.795 -60.48 22.465 -61.5 22.125 C-60.625 14.25 -60.625 14.25 -59.5 13.125 C-56.125 12.875 -56.125 12.875 -52.5 13.125 C-52.066875 13.61871094 -51.63375 14.11242187 -51.1875 14.62109375 C-47.17173584 18.19995764 -38.70205852 16.36781312 -33.5 16.125 C-31.94877441 16.05321533 -31.94877441 16.05321533 -30.36621094 15.97998047 C-26.99175488 15.80696936 -23.62153557 15.59748342 -20.25 15.375 C-19.15478027 15.31352783 -18.05956055 15.25205566 -16.93115234 15.1887207 C-15.37968506 15.07210083 -15.37968506 15.07210083 -13.796875 14.953125 C-12.87229492 14.8902832 -11.94771484 14.82744141 -10.99511719 14.76269531 C-7.8256567 13.95265316 -6.54414576 12.63517469 -4.5 10.125 C-3.85030616 7.81651835 -3.85030616 7.81651835 -3.8125 5.4375 C-3.5110792 0.17555396 -3.5110792 0.17555396 0 0 Z " fill="#A4935C" transform="translate(140.5,53.875)"/>
<path d="M0 0 C4.27186525 1.52853935 7.99326863 3.71509481 11.8125 6.125 C12.40998047 6.49753906 13.00746094 6.87007812 13.62304688 7.25390625 C15.08426251 8.1657048 16.54244585 9.08235976 18 10 C17.67 12.64 17.34 15.28 17 18 C18.04414063 18.63164062 19.08828125 19.26328125 20.1640625 19.9140625 C31.65029115 26.88600081 43.0398918 34.00496553 54.31982422 41.30664062 C56.2248864 42.51027619 58.15700797 43.67154118 60.10595703 44.80273438 C61.61778564 45.69702148 61.61778564 45.69702148 63.16015625 46.609375 C64.08578369 47.14014648 65.01141113 47.67091797 65.96508789 48.21777344 C68 50 68 50 68.42749023 52.58691406 C68 55 68 55 66 57 C59.89807342 57 55.88645646 53.45608248 51.1875 50 C49.42174502 48.73404063 47.65475575 47.46980158 45.88671875 46.20703125 C44.47398682 45.19310303 44.47398682 45.19310303 43.03271484 44.15869141 C38.11768899 40.66016794 33.15276822 37.23603983 28.17178345 33.83227539 C26.52009383 32.70125951 24.87365588 31.56258671 23.22729492 30.42382812 C22.2138501 29.73095703 21.20040527 29.03808594 20.15625 28.32421875 C19.25712891 27.70635498 18.35800781 27.08849121 17.43164062 26.4519043 C15.21523673 25.12851534 13.52199713 24.43929432 11 24 C10.01 25.32 9.02 26.64 8 28 C3.6515388 26.69868272 0.0323617 25.03395576 -3.8125 22.625 C-4.76769531 22.03976563 -5.72289063 21.45453125 -6.70703125 20.8515625 C-9.25018236 18.79797881 -9.66179958 18.16213744 -10 15 C-9.19555664 13.16894531 -9.19555664 13.16894531 -7.91015625 11.328125 C-7.45576172 10.66425781 -7.00136719 10.00039062 -6.53320312 9.31640625 C-6.04787109 8.63449219 -5.56253906 7.95257813 -5.0625 7.25 C-4.58103516 6.55261719 -4.09957031 5.85523438 -3.60351562 5.13671875 C-2.41359763 3.41663927 -1.20824463 1.70725604 0 0 Z " fill="#A1915C" transform="translate(125,158)"/>
<path d="M0 0 C0.33 0 0.66 0 1 0 C1.10151824 7.72286742 1.17151568 15.44556239 1.21972656 23.16894531 C1.23982715 25.79563833 1.26711204 28.42228669 1.30175781 31.04882812 C1.35034164 34.82693512 1.37298509 38.60444984 1.390625 42.3828125 C1.41127014 43.55490265 1.43191528 44.7269928 1.45318604 45.93460083 C1.4549202 52.25246231 1.28691849 56.20132135 -3 61 C-7.26929805 57.11053274 -10.05834036 53.02180766 -12.875 48 C-13.29007813 47.30132812 -13.70515625 46.60265625 -14.1328125 45.8828125 C-17.0025093 40.81301481 -17.0025093 40.81301481 -16.9921875 37.46875 C-15.61251862 34.03587311 -13.97382785 30.76847505 -12.25 27.5 C-9.10599195 21.39746282 -6.43115838 15.33210091 -4.10546875 8.8671875 C-2.92271066 5.79953932 -1.51099466 2.91808137 0 0 Z " fill="#113D62" transform="translate(193,81)"/>
<path d="M0 0 C9 0 9 0 11.76171875 1.87109375 C14.74263154 6.0381289 16.78056816 10.37316646 18.8125 15.0625 C19.42254883 16.40924805 19.42254883 16.40924805 20.04492188 17.78320312 C23 24.46316964 23 24.46316964 23 29 C15.41 29 7.82 29 0 29 C0 19.43 0 9.86 0 0 Z " fill="#123D61" transform="translate(87,106)"/>
<path d="M0 0 C0 9.9 0 19.8 0 30 C-4.29 30 -8.58 30 -13 30 C-16.64332446 23.01696145 -17.09118814 16.85125226 -14.9375 9.25 C-10.93317533 2.53306829 -7.96658549 0 0 0 Z " fill="#1D4465" transform="translate(85,106)"/>
<path d="M0 0 C0.99 0.33 1.98 0.66 3 1 C2.01 1.495 2.01 1.495 1 2 C0.94849049 8.63041796 0.91393463 15.26078275 0.89013672 21.89135742 C0.88019599 24.13812182 0.86663872 26.3848737 0.84912109 28.6315918 C0.7098773 46.97491429 1.55792109 64.69120888 5.3125 82.6875 C5.5305127 83.74855957 5.74852539 84.80961914 5.97314453 85.90283203 C7.6410715 93.78681463 9.6290466 101.43177658 12.31103516 109.03369141 C13.05015695 111.14314814 13.74876899 113.26412973 14.44921875 115.38671875 C20.76409285 133.9895718 29.86905096 151.53252508 42 167 C43.03060547 168.34384766 43.03060547 168.34384766 44.08203125 169.71484375 C48.13930133 174.90846956 52.46317683 179.82414025 56.921875 184.67578125 C59.04370878 187.04888482 61.03339821 189.49745493 63 192 C53.97557181 189.53879231 48.4442139 179.93411352 43.29492188 172.79101562 C41.91163908 170.87778738 40.51017862 168.97855475 39.109375 167.078125 C19.66750645 140.42440593 8.50406118 111.20537242 2 79 C1.66355469 77.3603125 1.66355469 77.3603125 1.3203125 75.6875 C-1.71986555 59.22376654 -2.33423744 42.4257765 -2.26074219 25.72680664 C-2.2497623 22.74801411 -2.2608535 19.76979302 -2.2734375 16.79101562 C-2.27211989 14.88801951 -2.26956582 12.98502374 -2.265625 11.08203125 C-2.26967346 10.19578568 -2.27372192 9.3095401 -2.27789307 8.3964386 C-2.23007552 2.23007552 -2.23007552 2.23007552 0 0 Z " fill="#3F3F40" transform="translate(22,50)"/>
<path d="M0 0 C5.875 1.875 5.875 1.875 7 3 C7.11420483 5.67661576 7.16387452 8.32635019 7.16796875 11.00390625 C7.17220352 11.82557281 7.17643829 12.64723938 7.18080139 13.49380493 C7.19076644 16.18342075 7.19070827 18.87286882 7.1875 21.5625 C7.18659363 22.93180161 7.18659363 22.93180161 7.18566895 24.32876587 C7.07801135 83.95729064 -7.53850782 139.6342004 -49 184 C-49.33 183.01 -49.66 182.02 -50 181 C-49.071875 180.38125 -49.071875 180.38125 -48.125 179.75 C-45.93548321 178.1882621 -45.93548321 178.1882621 -45.0625 176.125 C-44 174 -44 174 -41.69921875 171.703125 C-8.98237277 138.93893192 4.10382099 83.60424071 4.1953125 38.7421875 C4.18941011 34.45291798 4.15905597 30.16412421 4.125 25.875 C4.11493971 23.64453532 4.1058193 21.41406619 4.09765625 19.18359375 C4.07590845 13.78896336 4.04267757 8.39450337 4 3 C2.68 2.67 1.36 2.34 0 2 C0 1.34 0 0.68 0 0 Z " fill="#2D2D2D" transform="translate(258,49)"/>
<path d="M0 0 C1.43169777 -0.00956978 1.43169777 -0.00956978 2.89231873 -0.01933289 C4.45007774 -0.02100212 4.45007774 -0.02100212 6.03930664 -0.02270508 C7.0985585 -0.02603348 8.15781036 -0.02936188 9.24916077 -0.03279114 C11.49455327 -0.03786502 13.73995334 -0.04019932 15.98535156 -0.04003906 C19.43119667 -0.04222474 22.87672141 -0.06037354 26.32250977 -0.0793457 C28.49894096 -0.08227961 30.67537368 -0.08426443 32.85180664 -0.08520508 C34.40652931 -0.09598335 34.40652931 -0.09598335 35.99266052 -0.10697937 C36.95027786 -0.10390274 37.9078952 -0.10082611 38.89453125 -0.09765625 C39.73978867 -0.09908127 40.58504608 -0.10050629 41.45591736 -0.10197449 C43.51196289 0.14526367 43.51196289 0.14526367 45.51196289 2.14526367 C45.51196289 3.79526367 45.51196289 5.44526367 45.51196289 7.14526367 C28.68196289 7.14526367 11.85196289 7.14526367 -5.48803711 7.14526367 C-5.48803711 0.02477233 -5.48803711 0.02477233 0 0 Z " fill="#9A8B59" transform="translate(98.488037109375,210.854736328125)"/>
<path d="M0 0 C2.98754289 2.98754289 3.62262865 4.21118103 4.875 8.0625 C6.51907273 12.89876064 8.58780088 17.19711061 11.14453125 21.61328125 C12.33428035 24.9326269 11.98925159 26.60071986 11 30 C9.50136846 33.06484063 7.77612854 35.96412267 6 38.875 C5.5359375 39.65875 5.071875 40.4425 4.59375 41.25 C2.09180819 45.42475174 2.09180819 45.42475174 1 47 C0.67 47 0.34 47 0 47 C0 31.49 0 15.98 0 0 Z " fill="#14426A" transform="translate(197,82)"/>
<path d="M0 0 C2.97 0 5.94 0 9 0 C9 0.33 9 0.66 9 1 C6.36 1 3.72 1 1 1 C1 10.57 1 20.14 1 30 C8.59 30 16.18 30 24 30 C21.19906181 22.5575071 18.31417886 15.28917413 14.8203125 8.14453125 C14.54960938 7.43683594 14.27890625 6.72914062 14 6 C14.33 5.34 14.66 4.68 15 4 C17.79083991 6.41027083 18.67732963 8.59228675 20 12 C20.56932697 13.30870158 21.14540086 14.61447952 21.7265625 15.91796875 C22.190625 16.96307617 22.190625 16.96307617 22.6640625 18.02929688 C23.31033527 19.48078349 23.95881169 20.93129073 24.609375 22.38085938 C27 27.77985491 27 27.77985491 27 30 C28.32 30 29.64 30 31 30 C30.42365861 34.75481646 28.44931479 37.97048212 26 42 C23.66666667 39.66666667 21.33333333 37.33333333 19 35 C19 34.01 19 33.02 19 32 C17.71222656 32.01160156 16.42445312 32.02320313 15.09765625 32.03515625 C13.41927228 32.0445327 11.74088674 32.05363305 10.0625 32.0625 C9.21236328 32.07087891 8.36222656 32.07925781 7.48632812 32.08789062 C6.67744141 32.09111328 5.86855469 32.09433594 5.03515625 32.09765625 C4.2862915 32.10289307 3.53742676 32.10812988 2.76586914 32.11352539 C1 32 1 32 0 31 C-0.08790975 28.70848583 -0.10694038 26.41427476 -0.09765625 24.12109375 C-0.0962413 23.4344313 -0.09482635 22.74776886 -0.09336853 22.04029846 C-0.08775479 19.83932199 -0.07520007 17.63844591 -0.0625 15.4375 C-0.05748676 13.94856917 -0.05292355 12.45963676 -0.04882812 10.97070312 C-0.03778093 7.31376925 -0.02050713 3.65689442 0 0 Z " fill="#898460" transform="translate(86,105)"/>
<path d="M0 0 C4.19907318 2.0578664 8.18598781 4.39736508 12.1875 6.8125 C13.29254883 7.45155273 13.29254883 7.45155273 14.41992188 8.10351562 C19.7433219 11.34065216 19.7433219 11.34065216 21.05078125 14.69921875 C21 17 21 17 20 19 C15.94111147 19.29950292 13.90687604 18.67669137 10.57421875 16.375 C9.77822266 15.83359375 8.98222656 15.2921875 8.16210938 14.734375 C6.93717773 13.87585938 6.93717773 13.87585938 5.6875 13 C4.85154297 12.42765625 4.01558594 11.8553125 3.15429688 11.265625 C1.09553776 9.85390446 -0.95526236 8.43191933 -3 7 C-2.25 2.25 -2.25 2.25 0 0 Z " fill="#9D8F5C" transform="translate(111,177)"/>
<path d="M0 0 C12.21 0 24.42 0 37 0 C37.495 2.475 37.495 2.475 38 5 C25.13 5 12.26 5 -1 5 C-0.67 3.35 -0.34 1.7 0 0 Z " fill="#9A8D5D" transform="translate(100,204)"/>
<path d="M0 0 C5.12917335 0.14274137 9.15406251 3.3608163 13.3125 6.0625 C14.05306641 6.53494141 14.79363281 7.00738281 15.55664062 7.49414062 C17.37551219 8.65587149 19.1883659 9.82701482 21 11 C20.67 12.98 20.34 14.96 20 17 C17.57617269 17.87948077 16.42906974 18.17535939 14.0012207 17.18310547 C11.76052651 15.76240888 9.52633679 14.33735091 7.3125 12.875 C6.52810547 12.38773438 5.74371094 11.90046875 4.93554688 11.3984375 C-0.69037529 7.74183122 -0.69037529 7.74183122 -2.14453125 4.2578125 C-2 2 -2 2 0 0 Z " fill="#9D8F5C" transform="translate(129,149)"/>
<path d="M0 0 C1.65 0 3.3 0 5 0 C5.66 1.32 6.32 2.64 7 4 C10.96 4 14.92 4 19 4 C19 4.33 19 4.66 19 5 C15.7 5.33 12.4 5.66 9 6 C9.39399588 9.86115959 9.96747609 13.22138578 11.5625 16.75 C13 20 13 20 13 23 C10.03 23 7.06 23 4 23 C3.97314588 20.68756208 3.95367159 18.3750373 3.9375 16.0625 C3.92589844 14.77472656 3.91429688 13.48695312 3.90234375 12.16015625 C4 9 4 9 5 8 C3.68 7.67 2.36 7.34 1 7 C0.67 4.69 0.34 2.38 0 0 Z " fill="#8B845A" transform="translate(82,70)"/>
<path d="M0 0 C1 2 1 2 -0.08203125 5.68359375 C-0.64610139 7.27281336 -1.22399325 8.85716653 -1.8125 10.4375 C-2.28248413 11.70219116 -2.28248413 11.70219116 -2.76196289 12.99243164 C-11.71753394 36.30112646 -26.02713375 56.83821317 -43 75 C-43.33 74.01 -43.66 73.02 -44 72 C-43.38125 71.5875 -42.7625 71.175 -42.125 70.75 C-39.93548321 69.1882621 -39.93548321 69.1882621 -39.0625 67.125 C-38 65 -38 65 -35.69921875 62.703125 C-19.77697516 46.75783909 -9.45695631 24.17646983 -1.875 3.2734375 C-1 1 -1 1 0 0 Z " fill="#282828" transform="translate(252,158)"/>
<path d="M0 0 C0.33 0.66 0.66 1.32 1 2 C1.99 2 2.98 2 4 2 C4 6.62 4 11.24 4 16 C-5.625 19 -5.625 19 -9 19 C-8.43410156 17.87980469 -7.86820312 16.75960937 -7.28515625 15.60546875 C-6.54416494 14.13286578 -5.80328534 12.66020659 -5.0625 11.1875 C-4.50272461 10.08051758 -4.50272461 10.08051758 -3.93164062 8.95117188 C-3.57392578 8.23896484 -3.21621094 7.52675781 -2.84765625 6.79296875 C-2.51773682 6.1383667 -2.18781738 5.48376465 -1.84790039 4.80932617 C-0.88166321 2.83869379 -0.88166321 2.83869379 0 0 Z " fill="#88845D" transform="translate(81,77)"/>
<path d="M0 0 C1.67542976 0.28604898 3.34385343 0.61781233 5 1 C5 2.32 5 3.64 5 5 C5.66 5.66 6.32 6.32 7 7 C7.10183594 7.95261719 7.20367187 8.90523437 7.30859375 9.88671875 C7.98106098 15.59012762 10.7072389 20.63870086 13.0625 25.8125 C13.99400392 27.88010829 14.92254896 29.94905302 15.84765625 32.01953125 C16.26023682 32.92807861 16.67281738 33.83662598 17.09790039 34.77270508 C18 37 18 37 18 39 C17.01 39 16.02 39 15 39 C14.68546875 38.2265625 14.3709375 37.453125 14.046875 36.65625 C11.14311607 29.57413156 11.14311607 29.57413156 7.8125 22.6875 C5.15343973 17.47747134 3.23965248 12.80914681 5 7 C3.35 6.67 1.7 6.34 0 6 C-0.38218767 4.34385343 -0.71395102 2.67542976 -1 1 C-0.67 0.67 -0.34 0.34 0 0 Z " fill="#86825D" transform="translate(194,70)"/>
<path d="M0 0 C0.66 0 1.32 0 2 0 C3.17154293 2.28929053 4.33738074 4.58118362 5.5 6.875 C5.83386719 7.52597656 6.16773438 8.17695313 6.51171875 8.84765625 C9 13.7734375 9 13.7734375 9 16 C3.125 14.125 3.125 14.125 2 13 C1.67 22.24 1.34 31.48 1 41 C-3.29 41 -7.58 41 -12 41 C-12 40.67 -12 40.34 -12 40 C-8.04 40 -4.08 40 0 40 C0 26.8 0 13.6 0 0 Z " fill="#A6A58F" transform="translate(169,132)"/>
<path d="M0 0 C0.33 0 0.66 0 1 0 C1 5.94 1 11.88 1 18 C-1.75078884 18.91692961 -3.35948913 19.10886083 -6.1875 19.0625 C-8.0746875 19.0315625 -8.0746875 19.0315625 -10 19 C-8.71078784 16.39459218 -7.41874404 13.79065627 -6.125 11.1875 C-5.76019531 10.44951172 -5.39539063 9.71152344 -5.01953125 8.95117188 C-4.66503906 8.23896484 -4.31054688 7.52675781 -3.9453125 6.79296875 C-3.62062988 6.1383667 -3.29594727 5.48376465 -2.96142578 4.80932617 C-2 3 -2 3 0 0 Z " fill="#A59861" transform="translate(208,132)"/>
<path d="M0 0 C0.66 0 1.32 0 2 0 C2.41507813 0.79019531 2.83015625 1.58039063 3.2578125 2.39453125 C11.47531076 17.43702283 21.66245567 31.11489413 33.57421875 43.43359375 C35.56918974 45.54421523 37.32694126 47.6330975 39 50 C29.3632353 47.37179145 23.47265557 36.61448357 18 29 C17.26910156 27.98776367 17.26910156 27.98776367 16.5234375 26.95507812 C0 4.01739165 0 4.01739165 0 0 Z " fill="#282828" transform="translate(46,192)"/>
<path d="M0 0 C0.33 0 0.66 0 1 0 C1 1.65 1 3.3 1 5 C2.32 5 3.64 5 5 5 C4.61098806 7.80088595 4.36377686 9.57844439 2.48901367 11.75097656 C0.46325432 14.81070687 0.5683212 17.0845532 0.48828125 20.734375 C0.45283203 22.02988281 0.41738281 23.32539063 0.38085938 24.66015625 C0.35776133 26.02343226 0.33497886 27.38671364 0.3125 28.75 C0.27931352 30.12893862 0.24482262 31.5078465 0.20898438 32.88671875 C0.12647709 36.25773059 0.05733229 39.62848128 0 43 C-0.33 43 -0.66 43 -1 43 C-1.02470254 37.35832031 -1.04286121 31.71667205 -1.05493164 26.07495117 C-1.05996315 24.15534924 -1.06678898 22.23575114 -1.07543945 20.31616211 C-1.08755669 17.55842136 -1.09324011 14.80073124 -1.09765625 12.04296875 C-1.10281754 11.18350143 -1.10797882 10.32403412 -1.11329651 9.43852234 C-1.11337204 8.63791885 -1.11344757 7.83731537 -1.11352539 7.01245117 C-1.115746 6.3085173 -1.11796661 5.60458344 -1.12025452 4.87931824 C-1 3 -1 3 0 0 Z " fill="#8A907C" transform="translate(223,130)"/>
<path d="M0 0 C0.33 0 0.66 0 1 0 C1 4.29 1 8.58 1 13 C-1.31 13.33 -3.62 13.66 -6 14 C-5.41892368 10.2397015 -4.34800504 7.46964968 -2.4375 4.1875 C-1.98246094 3.39730469 -1.52742188 2.60710937 -1.05859375 1.79296875 C-0.53458984 0.90544922 -0.53458984 0.90544922 0 0 Z " fill="#204668" transform="translate(83,80)"/>
<path d="M0 0 C3 0.375 3 0.375 4.875 1.5 C6.4682099 4.15534983 6.20214032 6.34289518 6 9.375 C4.68 9.045 3.36 8.715 2 8.375 C2 7.055 2 5.735 2 4.375 C0.68 4.375 -0.64 4.375 -2 4.375 C-2.99 5.86 -2.99 5.86 -4 7.375 C-4.33 6.715 -4.66 6.055 -5 5.375 C-5.99 5.87 -5.99 5.87 -7 6.375 C-9.125 5.4375 -9.125 5.4375 -11 4.375 C-10.236875 4.271875 -9.47375 4.16875 -8.6875 4.0625 C-5.97020993 3.62755235 -5.97020993 3.62755235 -4.5625 1.8125 C-3 0.375 -3 0.375 0 0 Z " fill="#9A8D59" transform="translate(196,66.625)"/>
<path d="M0 0 C4.01921242 1.97434996 7.96950601 3.95077282 11.8125 6.25 C14.83223977 8.24062941 14.83223977 8.24062941 18 8 C18 8.66 18 9.32 18 10 C17.01 10 16.02 10 15 10 C14.67 10.66 14.34 11.32 14 12 C8.72 8.7 3.44 5.4 -2 2 C-1.34 1.34 -0.68 0.68 0 0 Z " fill="#26445C" transform="translate(116,177)"/>
<path d="M0 0 C1.98 0.66 3.96 1.32 6 2 C6 14.87 6 27.74 6 41 C5.67 41 5.34 41 5 41 C4.67 28.46 4.34 15.92 4 3 C2.68 2.67 1.36 2.34 0 2 C0 1.34 0 0.68 0 0 Z " fill="#6F6F6F" transform="translate(258,49)"/>
<path d="M0 0 C0.66 0 1.32 0 2 0 C3.65 4.29 5.3 8.58 7 13 C4.69 13 2.38 13 0 13 C0 8.71 0 4.42 0 0 Z " fill="#345266" transform="translate(86,80)"/>
<path d="M0 0 C3.59150489 2.27461977 4.52145969 4.08884242 6 8 C7.34471085 10.83222286 8.70308025 13.65703826 10.07421875 16.4765625 C11 19 11 19 10 22 C6.88776996 18.34193269 5.18449804 14.24429815 3.3125 9.875 C2.99216797 9.14667969 2.67183594 8.41835937 2.34179688 7.66796875 C0 2.26535848 0 2.26535848 0 0 Z " fill="#8B8464" transform="translate(100,109)"/>
<path d="M0 0 C3.69876091 1.37287342 6.9514476 3.06355453 10.3125 5.125 C11.19550781 5.66382813 12.07851562 6.20265625 12.98828125 6.7578125 C13.98408203 7.37269531 13.98408203 7.37269531 15 8 C13.421875 9.2421875 13.421875 9.2421875 11 10 C8.53058734 8.81301179 6.49218517 7.64771477 4.25 6.125 C3.64800781 5.73441406 3.04601562 5.34382812 2.42578125 4.94140625 C0.94113535 3.97520812 -0.53072939 2.98942212 -2 2 C-1.34 1.34 -0.68 0.68 0 0 Z " fill="#2C4A61" transform="translate(129,157)"/>
<path d="M0 0 C0 3 0 3 -1.875 5.1875 C-4 7 -4 7 -6 7 C-6 7.66 -6 8.32 -6 9 C-7.75 10.7265625 -7.75 10.7265625 -10 12.625 C-10.7425 13.25664062 -11.485 13.88828125 -12.25 14.5390625 C-12.8275 15.02117187 -13.405 15.50328125 -14 16 C-14.66 15.67 -15.32 15.34 -16 15 C-15.360625 14.21625 -14.72125 13.4325 -14.0625 12.625 C-12.01857687 10.20460719 -12.01857687 10.20460719 -11 8 C-10.34 8 -9.68 8 -9 8 C-8.67 7.01 -8.34 6.02 -8 5 C-6.34561387 4.30341637 -4.67745682 3.63903117 -3 3 C-1.22722741 1.47992158 -1.22722741 1.47992158 0 0 Z " fill="#3D3D3E" transform="translate(207,233)"/>
<path d="M0 0 C0.33 0 0.66 0 1 0 C1.16435547 0.90492188 1.16435547 0.90492188 1.33203125 1.828125 C2.21668391 6.28734977 2.927629 9.50866931 6 13 C6 13.66 6 14.32 6 15 C2.32408105 13.9789114 1.0660202 13.08564783 -1.3125 10 C-3 7 -3 7 -3 5 C-2.01 5 -1.02 5 0 5 C0 3.35 0 1.7 0 0 Z " fill="#A4986A" transform="translate(56,131)"/>
<path d="M0 0 C2.97 0 5.94 0 9 0 C8.01 1.98 7.02 3.96 6 6 C5.01 6 4.02 6 3 6 C0 2.66666667 0 2.66666667 0 0 Z " fill="#A18F5F" transform="translate(185,135)"/>
<path d="M0 0 C3.90285767 1.58667578 6.33520982 4.13350481 9.25 7.125 C10.14203125 8.03507813 11.0340625 8.94515625 11.953125 9.8828125 C12.62859375 10.58148438 13.3040625 11.28015625 14 12 C13.01 12.495 13.01 12.495 12 13 C7.17514834 9.04174791 3.16589254 5.40839975 0 0 Z " fill="#191919" transform="translate(71,229)"/>
<path d="M0 0 C4.43601966 3.51822249 5.52033129 7.75390186 7 13 C6.01 13 5.02 13 4 13 C3.32694982 11.39850114 2.66177773 9.79368971 2 8.1875 C1.62875 7.29417969 1.2575 6.40085937 0.875 5.48046875 C0 3 0 3 0 0 Z " fill="#8F865F" transform="translate(205,96)"/>
<path d="M0 0 C1.65 0 3.3 0 5 0 C5.33 1.65 5.66 3.3 6 5 C4.34385343 5.38218767 2.67542976 5.71395102 1 6 C0 5 0 5 -0.0625 2.4375 C-0.041875 1.633125 -0.02125 0.82875 0 0 Z " fill="#244360" transform="translate(82,70)"/>
<path d="M0 0 C1.65 0.33 3.3 0.66 5 1 C4.67 2.65 4.34 4.3 4 6 C2.35 5.67 0.7 5.34 -1 5 C-0.67 3.35 -0.34 1.7 0 0 Z " fill="#1F4360" transform="translate(194,70)"/>
<path d="M0 0 C-4.61252802 4.9306334 -9.63398668 4.7770223 -16 5 C-13.16104152 3.57082045 -10.31555263 2.16143499 -7.4375 0.8125 C-6.29087891 0.26529297 -6.29087891 0.26529297 -5.12109375 -0.29296875 C-3 -1 -3 -1 0 0 Z " fill="#6D6D6C" transform="translate(87,30)"/>
<path d="M0 0 C2 3 2 3 1.71484375 4.97265625 C1.45832031 5.66230469 1.20179687 6.35195312 0.9375 7.0625 C0.69902344 7.75472656 0.46054688 8.44695312 0.21484375 9.16015625 C-1 11 -1 11 -6 13 C-4.02 8.71 -2.04 4.42 0 0 Z " fill="#938F6E" transform="translate(78,84)"/>
<path d="M0 0 C0.33 0 0.66 0 1 0 C1 4.29 1 8.58 1 13 C0.67 13 0.34 13 0 13 C-0.33 11.02 -0.66 9.04 -1 7 C-1.99 7.66 -2.98 8.32 -4 9 C-2.94124926 5.59687262 -1.99097846 2.98646769 0 0 Z " fill="#2B4B66" transform="translate(83,80)"/>
<path d="M0 0 C3.625 0.75 3.625 0.75 7 2 C7.33 2.66 7.66 3.32 8 4 C7.01 4 6.02 4 5 4 C4.67 4.66 4.34 5.32 4 6 C0.535 4.02 0.535 4.02 -3 2 C-2.01 1.34 -1.02 0.68 0 0 Z " fill="#2D4E64" transform="translate(126,183)"/>
<path d="M0 0 C1.79244141 0.01740234 1.79244141 0.01740234 3.62109375 0.03515625 C5.41740234 0.04869141 5.41740234 0.04869141 7.25 0.0625 C8.17683594 0.07410156 9.10367188 0.08570312 10.05859375 0.09765625 C10.05859375 0.42765625 10.05859375 0.75765625 10.05859375 1.09765625 C9.32253906 1.1234375 8.58648437 1.14921875 7.828125 1.17578125 C0.13918219 1.58825668 0.13918219 1.58825668 -5.94140625 6.09765625 C-3.64266867 0.12093853 -3.64266867 0.12093853 0 0 Z " fill="#C7D0D7" transform="translate(211.94140625,108.90234375)"/>
<path d="M0 0 C3 1 3 1 4.1875 3.375 C5 6 5 6 5 9 C4.01 8.67 3.02 8.34 2 8 C0.5522078 5.10441559 0 3.25811062 0 0 Z " fill="#958D65" transform="translate(90,84)"/>
<path d="M0 0 C0.66 0 1.32 0 2 0 C0.5682479 5.01113235 -1.98445693 6.94469549 -6 10 C-5.6875 8.125 -5.6875 8.125 -5 6 C-4.01 5.34 -3.02 4.68 -2 4 C-0.80767387 1.94996045 -0.80767387 1.94996045 0 0 Z " fill="#3F4040" transform="translate(214,223)"/>
<path d="M0 0 C0.99 0.33 1.98 0.66 3 1 C-0.96 4.465 -0.96 4.465 -5 8 C-5.66 7.67 -6.32 7.34 -7 7 C-6.25 5.0625 -6.25 5.0625 -5 3 C-2.9375 2.375 -2.9375 2.375 -1 2 C-0.67 1.34 -0.34 0.68 0 0 Z " fill="#434344" transform="translate(188,249)"/>
<path d="M0 0 C-1.5830577 4.2742558 -4.50568404 6.26531794 -8 9 C-6.68994234 5.06982701 -4.75047804 0 0 0 Z " fill="#CAD4DC" transform="translate(68,100)"/>
<path d="M0 0 C0.99 0.33 1.98 0.66 3 1 C3 2.98 3 4.96 3 7 C1.68 6.67 0.36 6.34 -1 6 C-0.67 4.02 -0.34 2.04 0 0 Z " fill="#9F955D" transform="translate(199,69)"/>
<path d="M0 0 C4.48525648 0.656379 8.66914029 1.70074209 13 3 C9.18243176 4.37432457 5.92744671 3.67975039 2 3 C2 2.34 2 1.68 2 1 C1.34 0.67 0.68 0.34 0 0 Z " fill="#3E3E3E" transform="translate(238,43)"/>
<path d="M0 0 C-1.28519565 2.86697492 -2.57129254 4.97607712 -5 7 C-5.66 7 -6.32 7 -7 7 C-3.86206897 0 -3.86206897 0 0 0 Z " fill="#3D5F7F" transform="translate(79,107)"/>
<path d="M0 0 C1.175625 0.0825 2.35125 0.165 3.5625 0.25 C4.2225 1.24 4.8825 2.23 5.5625 3.25 C1.90816236 4.46811255 0.95619816 3.81632223 -2.4375 2.25 C-3.0975 1.92 -3.7575 1.59 -4.4375 1.25 C-3.4375 0.25 -3.4375 0.25 0 0 Z " fill="#827E59" transform="translate(84.4375,66.75)"/>
<path d="M0 0 C0.66 0 1.32 0 2 0 C2.33 0.99 2.66 1.98 3 3 C2.01 4.485 2.01 4.485 1 6 C0.67 5.34 0.34 4.68 0 4 C-0.99 4.495 -0.99 4.495 -2 5 C-4.125 4.0625 -4.125 4.0625 -6 3 C-5.195625 2.87625 -4.39125 2.7525 -3.5625 2.625 C-2.716875 2.41875 -1.87125 2.2125 -1 2 C-0.67 1.34 -0.34 0.68 0 0 Z " fill="#8E8558" transform="translate(191,68)"/>
<path d="M0 0 C0.6875 1.6875 0.6875 1.6875 1 4 C-1.26153846 8.63076923 -1.26153846 8.63076923 -4 10 C-2.8905928 6.51329166 -1.73662334 3.22515763 0 0 Z " fill="#2B4B64" transform="translate(193,81)"/>
</svg>
